<svg width="40" height="40" viewBox="0 0 40 40" fill="none" xmlns="http://www.w3.org/2000/svg">
<path d="M14.0528 0C8.82291 0 4.57115 4.26021 4.57115 9.50047C4.57115 14.6407 8.58338 18.8009 13.8132 18.9809C13.9729 18.9609 14.1326 18.9609 14.2524 18.9809H14.3921C16.8461 18.8989 19.172 17.8638 20.8781 16.0946C22.5843 14.3254 23.5368 11.9607 23.5344 9.50047C23.5344 4.26021 19.2827 0 14.0528 0ZM24.1931 24.2992C18.6239 20.579 9.54152 20.579 3.93238 24.2992C1.39729 25.9993 0 28.2994 0 30.7595C0 33.2197 1.39729 35.4998 3.91242 37.1799C6.70701 39.06 10.3799 40 14.0528 40C17.7257 40 21.3986 39.06 24.1931 37.1799C26.7083 35.4798 28.1056 33.1997 28.1056 30.7195C28.0856 28.2594 26.7083 25.9793 24.1931 24.2992ZM35.9903 10.6765C36.3097 14.5567 33.555 17.9569 29.7424 18.4169H29.6426C29.5228 18.4169 29.403 18.4169 29.3032 18.4569C27.367 18.5569 25.5904 17.9369 24.253 16.7968C26.309 14.9567 27.4868 12.1966 27.2472 9.19646C27.1103 7.63639 26.5815 6.13642 25.7102 4.83624C26.7562 4.32638 27.9102 4.07914 29.0728 4.11585C30.2354 4.15256 31.3716 4.47212 32.3834 5.04696C33.3953 5.6218 34.2523 6.43466 34.8807 7.41543C35.5091 8.39619 35.8899 9.51541 35.9903 10.6765Z" fill="url(#paint0_linear_74_283)"/>
<path d="M39.9783 29.1837C39.8187 31.1238 38.5811 32.8039 36.5051 33.9439C34.5089 35.044 31.9938 35.564 29.4986 35.504C30.9359 34.204 31.7742 32.5839 31.9339 30.8638C32.1335 28.3837 30.9558 26.0035 28.6004 24.1035C27.263 23.0434 25.706 22.2034 24.0093 21.5833C28.4207 20.3033 33.97 21.1633 37.3834 23.9234C39.2198 25.4035 40.158 27.2636 39.9783 29.1837Z" fill="url(#paint1_linear_74_283)"/>
<defs>
<linearGradient id="paint0_linear_74_283" x1="27.8301" y1="18.6364" x2="-6.89864" y2="29.9385" gradientUnits="userSpaceOnUse">
<stop stop-color="#E6AA61"/>
<stop offset="1" stop-color="#BB8646"/>
</linearGradient>
<linearGradient id="paint1_linear_74_283" x1="36.3658" y1="27.7611" x2="21.6494" y2="33.6246" gradientUnits="userSpaceOnUse">
<stop stop-color="#E6AA61"/>
<stop offset="1" stop-color="#BB8646"/>
</linearGradient>
</defs>
</svg>
