<svg width="42" height="47" viewBox="0 0 42 47" fill="none" xmlns="http://www.w3.org/2000/svg">
<path d="M2.98438 46H3.86914V44.667H4.72754C5.61816 44.667 6.21289 44.0928 6.21289 43.2227V43.2168C6.21289 42.3467 5.61816 41.7725 4.72754 41.7725H2.98438V46ZM4.51074 42.4727C5.01758 42.4727 5.31641 42.7393 5.31641 43.2197V43.2256C5.31641 43.7061 5.01758 43.9756 4.51074 43.9756H3.86914V42.4727H4.51074ZM8.02734 46H10.8281V45.2705H8.91211V44.2012H10.7197V43.5215H8.91211V42.502H10.8281V41.7725H8.02734V46ZM12.7598 46H13.6445V44.4531H14.3682L15.1562 46H16.1582L15.2676 44.3213C15.751 44.1309 16.0322 43.665 16.0322 43.123V43.1172C16.0322 42.2852 15.4814 41.7725 14.5205 41.7725H12.7598V46ZM13.6445 43.8086V42.4639H14.4121C14.8545 42.4639 15.127 42.7275 15.127 43.1348V43.1406C15.127 43.5566 14.8662 43.8086 14.4238 43.8086H13.6445ZM22.3125 46.1084C23.4668 46.1084 24.1875 45.4053 24.1875 44.2832V43.7471H22.4121V44.3916H23.3262L23.3232 44.4707C23.3057 45.0039 22.9072 45.3584 22.3271 45.3584C21.6299 45.3584 21.1875 44.793 21.1875 43.876V43.8701C21.1875 42.9707 21.6094 42.4141 22.292 42.4141C22.7871 42.4141 23.1475 42.6631 23.2676 43.082L23.2734 43.1113H24.1523L24.1465 43.082C24.0205 42.2383 23.291 41.6641 22.292 41.6641C21.0615 41.6641 20.2852 42.5225 20.2852 43.8789V43.8848C20.2852 45.2617 21.0557 46.1084 22.3125 46.1084ZM26.0371 46H26.9219V44.4531H27.6455L28.4336 46H29.4355L28.5449 44.3213C29.0283 44.1309 29.3096 43.665 29.3096 43.123V43.1172C29.3096 42.2852 28.7588 41.7725 27.7979 41.7725H26.0371V46ZM26.9219 43.8086V42.4639H27.6895C28.1318 42.4639 28.4043 42.7275 28.4043 43.1348V43.1406C28.4043 43.5566 28.1436 43.8086 27.7012 43.8086H26.9219ZM30.9014 46H31.8301L32.1436 44.9746H33.6348L33.9482 46H34.8799L33.4092 41.7725H32.3691L30.9014 46ZM32.8643 42.6162H32.917L33.4326 44.3125H32.3457L32.8643 42.6162ZM36.5977 46H37.3857V43.123H37.4443L38.5283 46H39.082L40.166 43.123H40.2246V46H41.0127V41.7725H39.999L38.833 44.8662H38.7803L37.6113 41.7725H36.5977V46Z" fill="black"/>
<path d="M2.86377 18.3333C2.86377 17.781 3.31148 17.3333 3.86377 17.3333H8.54559C9.09787 17.3333 9.54559 17.781 9.54559 18.3333V30.6666H2.86377V18.3333Z" fill="url(#paint0_linear_0_1)"/>
<path d="M12.4092 7.66669C12.4092 7.1144 12.8569 6.66669 13.4092 6.66669H18.091C18.6433 6.66669 19.091 7.1144 19.091 7.66669V30.6667H12.4092V7.66669Z" fill="url(#paint1_linear_0_1)"/>
<path d="M21.9546 14.3333C21.9546 13.781 22.4023 13.3333 22.9546 13.3333H27.6364C28.1887 13.3333 28.6364 13.781 28.6364 14.3333V30.6666H21.9546V14.3333Z" fill="url(#paint2_linear_0_1)"/>
<path d="M32.4546 1C32.4546 0.447715 32.9023 0 33.4546 0H38.1364C38.6887 0 39.1364 0.447715 39.1364 1V30.6667H32.4546V1Z" fill="url(#paint3_linear_0_1)"/>
<rect y="32" width="42" height="4" rx="2" fill="url(#paint4_linear_0_1)"/>
<defs>
<linearGradient id="paint0_linear_0_1" x1="6.66026" y1="22.7654" x2="2.40819" y2="22.7654" gradientUnits="userSpaceOnUse">
<stop stop-color="#E6A960"/>
<stop offset="1" stop-color="#914F00" stop-opacity="0.76"/>
</linearGradient>
<linearGradient id="paint1_linear_0_1" x1="16.2057" y1="16.4445" x2="11.9536" y2="16.4445" gradientUnits="userSpaceOnUse">
<stop stop-color="#E6A960"/>
<stop offset="1" stop-color="#914F00" stop-opacity="0.76"/>
</linearGradient>
<linearGradient id="paint2_linear_0_1" x1="25.7511" y1="20.395" x2="21.499" y2="20.395" gradientUnits="userSpaceOnUse">
<stop stop-color="#E6A960"/>
<stop offset="1" stop-color="#914F00" stop-opacity="0.76"/>
</linearGradient>
<linearGradient id="paint3_linear_0_1" x1="36.2511" y1="12.4938" x2="31.999" y2="12.4938" gradientUnits="userSpaceOnUse">
<stop stop-color="#E6A960"/>
<stop offset="1" stop-color="#914F00" stop-opacity="0.76"/>
</linearGradient>
<linearGradient id="paint4_linear_0_1" x1="23.8636" y1="33.6296" x2="-2.86364" y2="33.6296" gradientUnits="userSpaceOnUse">
<stop stop-color="#E6A960"/>
<stop offset="1" stop-color="#914F00" stop-opacity="0.76"/>
</linearGradient>
</defs>
</svg>
