<svg width="26" height="26" viewBox="0 0 26 26" fill="none" xmlns="http://www.w3.org/2000/svg">
<path d="M12.9947 16.814C13.949 16.814 14.8642 16.4122 15.539 15.6969C16.2138 14.9816 16.5929 14.0115 16.5929 13C16.5929 11.9884 16.2138 11.0183 15.539 10.3031C14.8642 9.58781 13.949 9.18597 12.9947 9.18597C12.0404 9.18597 11.1252 9.58781 10.4504 10.3031C9.77558 11.0183 9.39648 11.9884 9.39648 13C9.39648 14.0115 9.77558 14.9816 10.4504 15.6969C11.1252 16.4122 12.0404 16.814 12.9947 16.814Z" stroke="#E6A960" stroke-width="1.5" stroke-miterlimit="10" stroke-linecap="round" stroke-linejoin="round"/>
<path d="M1 14.1188V11.8812C1 10.559 2.01949 9.46569 3.27886 9.46569C5.44978 9.46569 6.33733 7.83838 5.24588 5.84239C4.62219 4.69819 4.994 3.21073 6.08546 2.54963L8.16042 1.29101C9.10795 0.693483 10.3313 1.04946 10.8951 2.05381L11.027 2.29536C12.1064 4.29136 13.8816 4.29136 14.973 2.29536L15.1049 2.05381C15.6687 1.04946 16.8921 0.693483 17.8396 1.29101L19.9145 2.54963C21.006 3.21073 21.3778 4.69819 20.7541 5.84239C19.6627 7.83838 20.5502 9.46569 22.7211 9.46569C23.9685 9.46569 25 10.5463 25 11.8812V14.1188C25 15.441 23.9805 16.5343 22.7211 16.5343C20.5502 16.5343 19.6627 18.1616 20.7541 20.1576C21.3778 21.3145 21.006 22.7893 19.9145 23.4504L17.8396 24.709C16.8921 25.3065 15.6687 24.9505 15.1049 23.9462L14.973 23.7046C13.8936 21.7086 12.1184 21.7086 11.027 23.7046L10.8951 23.9462C10.3313 24.9505 9.10795 25.3065 8.16042 24.709L6.08546 23.4504C5.56264 23.1313 5.18061 22.6054 5.0232 21.988C4.8658 21.3707 4.94588 20.7124 5.24588 20.1576C6.33733 18.1616 5.44978 16.5343 3.27886 16.5343C2.01949 16.5343 1 15.441 1 14.1188Z" stroke="#E6A960" stroke-width="1.5" stroke-miterlimit="10" stroke-linecap="round" stroke-linejoin="round"/>
</svg>
